<svg xmlns:x="http://ns.adobe.com/Extensibility/1.0/" xmlns:i="http://ns.adobe.com/AdobeIllustrator/10.0/" xmlns:graph="http://ns.adobe.com/Graphs/1.0/" xmlns="http://www.w3.org/2000/svg" xmlns:xlink="http://www.w3.org/1999/xlink" xmlns:a="http://ns.adobe.com/AdobeSVGViewerExtensions/3.0/" version="1.1" x="0px" y="0px" viewBox="0 0 100 100" enable-background="new 0 0 100 100" xml:space="preserve"><rect x="33.079" y="24.483" width="27.158" height="4.526"></rect><polygon points="19.682,32.614 22.929,29.367 26.175,32.613 28.735,30.053 25.489,26.807 28.735,23.56 26.175,21 22.929,24.246   19.683,21 17.123,23.56 20.369,26.807 17.122,30.054 "></polygon><polygon points="27.08,41.027 21.447,46.66 18.777,43.99 16.216,46.55 21.447,51.781 29.64,43.587 "></polygon><polygon points="18.777,63.924 16.217,66.484 21.447,71.714 29.64,63.521 27.08,60.961 21.447,66.594 "></polygon><path d="M11.806,84.684V12.262h58.842v25.835c1.333-1.014,2.947-1.57,4.649-1.57c0.735,0,1.453,0.107,2.141,0.305V9.999  c0-2.49-2.039-4.526-4.526-4.526H9.542c-2.491,0-4.526,2.036-4.526,4.526v76.947c0,2.487,2.035,4.526,4.526,4.526h28.837  c-0.531-2.35,0.046-4.892,1.726-6.789H11.806z"></path><path d="M33.079,68.841h4.625c1.413-1.688,3.521-2.765,5.876-2.765h1.156c0.03-0.081,0.061-0.164,0.091-0.245l-1.613-1.517H33.079  V68.841z"></path><path d="M54.458,47.144c-0.357-0.878-0.525-1.811-0.544-2.745H33.079v4.526h20.304C53.706,48.312,54.058,47.713,54.458,47.144z"></path><path d="M47.644,55.563c-0.662-0.662-1.734-0.645-2.397,0.017c-0.663,0.662-0.665,1.744-0.003,2.406l4.058,3.816  c0.318,0.318,0.75,0.244,1.2,0.244h3.301c-2.351,2.948-3.895,6.489-4.466,10.029H43.58c-0.937,0-1.695,0.833-1.695,1.77  s0.758,1.771,1.695,1.771h5.507c0.029,2.949,0.776,5.899,2.078,8.259h-1.229c-0.45,0-0.882,0.258-1.2,0.577l-4.058,4.109  c-0.661,0.663-0.66,1.755,0.002,2.416c0.332,0.329,0.764,0.504,1.197,0.504c0.434,0,0.869-0.164,1.199-0.497l3.562-3.568h2.736  c3.333,4.13,8.568,6.811,13.878,7.111V59.097h-16.05L47.644,55.563z"></path><path d="M93.29,72.076h-5.877c-0.731-3.54-2.616-7.081-4.824-10.029h3.779c0.45,0,0.882,0.079,1.2-0.239l4.059-3.94  c0.66-0.663,0.658-1.671-0.004-2.331c-0.664-0.662-1.735-0.668-2.397-0.005l-3.562,3.565h-16.05v35.419  c5.311-0.346,10.451-3.56,13.784-7.1h2.831l3.562,3.573c0.331,0.334,0.765,0.501,1.199,0.501c0.434,0,0.866-0.166,1.197-0.494  c0.663-0.66,0.664-1.733,0.003-2.396l-4.058-4.148c-0.318-0.319-0.75-0.577-1.2-0.577h-1.298c1.318-2.359,2.075-5.31,2.104-8.259  h5.55c0.936,0,1.694-0.834,1.694-1.771S94.226,72.076,93.29,72.076z"></path><path d="M57.473,56.736h21.923c0-4.13-2.049-7.236-5.125-9.177l2.213-2.168c0.662-0.662,0.662-1.712,0-2.374  c-0.662-0.661-1.734-0.65-2.396,0.011l-3.2,3.207c-0.79-0.181-1.608-0.283-2.453-0.283c-0.845,0-1.664,0.106-2.454,0.287l-3.2-3.199  c-0.662-0.662-1.734-0.662-2.396,0c-0.662,0.661-0.662,1.735,0,2.397l2.212,2.122C59.522,49.501,57.473,52.606,57.473,56.736z"></path></svg>